# xmcd
#
# Track frame offsets:
#	150
#	33366
#	64366
#	80403
#	105167
#	123839
#	156727
#	175362
#	196997
#
# Disc length: 3012 seconds
# Revision: 0
# Processed by: cddbd v1.5.1PL0 Copyright (c) Steve Scherf et al.
# Submitted via: cdrLabel 7.0
#
DISCID=740bc209
DTITLE=Bernard Allison - Allison, McRay, Peterson,Weathersby /Triple Fret
DYEAR=2005
DGENRE=
TTITLE0=Bottle Of Whiskey
TTITLE1=Bluesman
TTITLE2=Get Drunk And Pop The Trunk
TTITLE3=Don't Tie Me Down
TTITLE4=I'm Praying For You
TTITLE5=Where's Lucky
TTITLE6=Good To Me
TTITLE7=Ain't Nothing But The Truth
TTITLE8=Take It Slow
EXTD=
EXTT0=
EXTT1=
EXTT2=
EXTT3=
EXTT4=
EXTT5=
EXTT6=
EXTT7=
EXTT8=
PLAYORDER=
